<?xml version="1.0" encoding="us-ascii" standalone="no"?><svg xmlns="http://www.w3.org/2000/svg" xmlns:xlink="http://www.w3.org/1999/xlink" contentStyleType="text/css" height="882px" preserveAspectRatio="none" style="width:1267px;height:882px;background:#FFFFFF;" version="1.1" viewBox="0 0 1267 882" width="1267px" zoomAndPan="magnify"><defs/><g><!--class Admin--><g id="elem_Admin"><rect codeLine="1" fill="#F1F1F1" height="129.4844" id="Admin" rx="2.5" ry="2.5" style="stroke:#181818;stroke-width:0.5;" width="389" x="871.5" y="721.5"/><ellipse cx="1038.75" cy="737.5" fill="#ADD1B2" rx="11" ry="11" style="stroke:#181818;stroke-width:1.0;"/><path d="M1041.0938,733.1719 C1040.1563,732.7344 1039.5625,732.5938 1038.6875,732.5938 C1036.0625,732.5938 1034.0625,734.6719 1034.0625,737.3906 L1034.0625,738.5156 C1034.0625,741.0938 1036.1719,742.9844 1039.0625,742.9844 C1040.2813,742.9844 1041.4375,742.6875 1042.1875,742.1406 C1042.7656,741.7344 1043.0938,741.2813 1043.0938,740.8906 C1043.0938,740.4375 1042.7031,740.0469 1042.2344,740.0469 C1042.0156,740.0469 1041.8125,740.125 1041.625,740.3125 C1041.1719,740.7969 1041.1719,740.7969 1040.9844,740.8906 C1040.5625,741.1563 1039.875,741.2813 1039.1094,741.2813 C1037.0625,741.2813 1035.7656,740.1875 1035.7656,738.4844 L1035.7656,737.3906 C1035.7656,735.6094 1037.0156,734.2969 1038.75,734.2969 C1039.3281,734.2969 1039.9375,734.4531 1040.4063,734.7031 C1040.8906,734.9844 1041.0625,735.2031 1041.1563,735.6094 C1041.2188,736.0156 1041.25,736.1406 1041.3906,736.2656 C1041.5313,736.4063 1041.7656,736.5156 1041.9844,736.5156 C1042.25,736.5156 1042.5156,736.375 1042.6875,736.1563 C1042.7969,736 1042.8281,735.8125 1042.8281,735.3906 L1042.8281,733.9688 C1042.8281,733.5313 1042.8125,733.4063 1042.7188,733.25 C1042.5625,732.9844 1042.2813,732.8438 1041.9844,732.8438 C1041.6875,732.8438 1041.4844,732.9375 1041.2656,733.25 L1041.0938,733.1719 Z " fill="#000000"/><text fill="#000000" font-family="sans-serif" font-size="14" lengthAdjust="spacing" textLength="46" x="1059.25" y="742.3467">Admin</text><line style="stroke:#181818;stroke-width:0.5;" x1="872.5" x2="1259.5" y1="753.5" y2="753.5"/><rect fill="none" height="6" style="stroke:#C82930;stroke-width:1.0;" width="6" x="879.5" y="764.1484"/><text fill="#000000" font-family="sans-serif" font-size="14" lengthAdjust="spacing" textLength="42" x="891.5" y="770.4951">id: int</text><rect fill="none" height="6" style="stroke:#C82930;stroke-width:1.0;" width="6" x="879.5" y="780.4453"/><text fill="#000000" font-family="sans-serif" font-size="14" lengthAdjust="spacing" textLength="123" x="891.5" y="786.792">username: String</text><rect fill="none" height="6" style="stroke:#C82930;stroke-width:1.0;" width="6" x="879.5" y="796.7422"/><text fill="#000000" font-family="sans-serif" font-size="14" lengthAdjust="spacing" textLength="120" x="891.5" y="803.0889">password: String</text><rect fill="none" height="6" style="stroke:#C82930;stroke-width:1.0;" width="6" x="879.5" y="813.0391"/><text fill="#000000" font-family="sans-serif" font-size="14" lengthAdjust="spacing" textLength="81" x="891.5" y="819.3857">role: String</text><line style="stroke:#181818;stroke-width:0.5;" x1="872.5" x2="1259.5" y1="826.6875" y2="826.6875"/><ellipse cx="882.5" cy="840.3359" fill="#84BE84" rx="3" ry="3" style="stroke:#038048;stroke-width:1.0;"/><text fill="#000000" font-family="sans-serif" font-size="14" lengthAdjust="spacing" textLength="363" x="891.5" y="843.6826">login(username: String, password: String): boolean</text></g><!--class Advisor--><g id="elem_Advisor"><rect codeLine="10" fill="#F1F1F1" height="210.9688" id="Advisor" rx="2.5" ry="2.5" style="stroke:#181818;stroke-width:0.5;" width="244" x="944" y="409"/><ellipse cx="1035.25" cy="425" fill="#ADD1B2" rx="11" ry="11" style="stroke:#181818;stroke-width:1.0;"/><path d="M1037.5938,420.6719 C1036.6563,420.2344 1036.0625,420.0938 1035.1875,420.0938 C1032.5625,420.0938 1030.5625,422.1719 1030.5625,424.8906 L1030.5625,426.0156 C1030.5625,428.5938 1032.6719,430.4844 1035.5625,430.4844 C1036.7813,430.4844 1037.9375,430.1875 1038.6875,429.6406 C1039.2656,429.2344 1039.5938,428.7813 1039.5938,428.3906 C1039.5938,427.9375 1039.2031,427.5469 1038.7344,427.5469 C1038.5156,427.5469 1038.3125,427.625 1038.125,427.8125 C1037.6719,428.2969 1037.6719,428.2969 1037.4844,428.3906 C1037.0625,428.6563 1036.375,428.7813 1035.6094,428.7813 C1033.5625,428.7813 1032.2656,427.6875 1032.2656,425.9844 L1032.2656,424.8906 C1032.2656,423.1094 1033.5156,421.7969 1035.25,421.7969 C1035.8281,421.7969 1036.4375,421.9531 1036.9063,422.2031 C1037.3906,422.4844 1037.5625,422.7031 1037.6563,423.1094 C1037.7188,423.5156 1037.75,423.6406 1037.8906,423.7656 C1038.0313,423.9063 1038.2656,424.0156 1038.4844,424.0156 C1038.75,424.0156 1039.0156,423.875 1039.1875,423.6563 C1039.2969,423.5 1039.3281,423.3125 1039.3281,422.8906 L1039.3281,421.4688 C1039.3281,421.0313 1039.3125,420.9063 1039.2188,420.75 C1039.0625,420.4844 1038.7813,420.3438 1038.4844,420.3438 C1038.1875,420.3438 1037.9844,420.4375 1037.7656,420.75 L1037.5938,420.6719 Z " fill="#000000"/><text fill="#000000" font-family="sans-serif" font-size="14" lengthAdjust="spacing" textLength="53" x="1055.75" y="429.8467">Advisor</text><line style="stroke:#181818;stroke-width:0.5;" x1="945" x2="1187" y1="441" y2="441"/><rect fill="none" height="6" style="stroke:#C82930;stroke-width:1.0;" width="6" x="952" y="451.6484"/><text fill="#000000" font-family="sans-serif" font-size="14" lengthAdjust="spacing" textLength="100" x="964" y="457.9951">advisor_id: int</text><rect fill="none" height="6" style="stroke:#C82930;stroke-width:1.0;" width="6" x="952" y="467.9453"/><text fill="#000000" font-family="sans-serif" font-size="14" lengthAdjust="spacing" textLength="151" x="964" y="474.292">advisor_name: String</text><rect fill="none" height="6" style="stroke:#C82930;stroke-width:1.0;" width="6" x="952" y="484.2422"/><text fill="#000000" font-family="sans-serif" font-size="14" lengthAdjust="spacing" textLength="150" x="964" y="490.5889">advisor_email: String</text><rect fill="none" height="6" style="stroke:#C82930;stroke-width:1.0;" width="6" x="952" y="500.5391"/><text fill="#000000" font-family="sans-serif" font-size="14" lengthAdjust="spacing" textLength="178" x="964" y="506.8857">advisor_password: String</text><rect fill="none" height="6" style="stroke:#C82930;stroke-width:1.0;" width="6" x="952" y="516.8359"/><text fill="#000000" font-family="sans-serif" font-size="14" lengthAdjust="spacing" textLength="145" x="964" y="523.1826">advisor_level: String</text><rect fill="none" height="6" style="stroke:#C82930;stroke-width:1.0;" width="6" x="952" y="533.1328"/><text fill="#000000" font-family="sans-serif" font-size="14" lengthAdjust="spacing" textLength="161" x="964" y="539.4795">department_id: String</text><rect fill="none" height="6" style="stroke:#C82930;stroke-width:1.0;" width="6" x="952" y="549.4297"/><text fill="#000000" font-family="sans-serif" font-size="14" lengthAdjust="spacing" textLength="157" x="964" y="555.7764">advisor_phone: String</text><rect fill="none" height="6" style="stroke:#C82930;stroke-width:1.0;" width="6" x="952" y="565.7266"/><text fill="#000000" font-family="sans-serif" font-size="14" lengthAdjust="spacing" textLength="218" x="964" y="572.0732">advisor_office_location: String</text><line style="stroke:#181818;stroke-width:0.5;" x1="945" x2="1187" y1="579.375" y2="579.375"/><ellipse cx="955" cy="593.0234" fill="#84BE84" rx="3" ry="3" style="stroke:#038048;stroke-width:1.0;"/><text fill="#000000" font-family="sans-serif" font-size="14" lengthAdjust="spacing" textLength="186" x="964" y="596.3701">viewAppointments(): void</text><ellipse cx="955" cy="609.3203" fill="#84BE84" rx="3" ry="3" style="stroke:#038048;stroke-width:1.0;"/><text fill="#000000" font-family="sans-serif" font-size="14" lengthAdjust="spacing" textLength="210" x="964" y="612.667">scheduleAppointment(): void</text></g><!--class Student--><g id="elem_Student"><rect codeLine="23" fill="#F1F1F1" height="325.0469" id="Student" rx="2.5" ry="2.5" style="stroke:#181818;stroke-width:0.5;" width="236" x="948" y="7"/><ellipse cx="1032.75" cy="23" fill="#ADD1B2" rx="11" ry="11" style="stroke:#181818;stroke-width:1.0;"/><path d="M1035.0938,18.6719 C1034.1563,18.2344 1033.5625,18.0938 1032.6875,18.0938 C1030.0625,18.0938 1028.0625,20.1719 1028.0625,22.8906 L1028.0625,24.0156 C1028.0625,26.5938 1030.1719,28.4844 1033.0625,28.4844 C1034.2813,28.4844 1035.4375,28.1875 1036.1875,27.6406 C1036.7656,27.2344 1037.0938,26.7813 1037.0938,26.3906 C1037.0938,25.9375 1036.7031,25.5469 1036.2344,25.5469 C1036.0156,25.5469 1035.8125,25.625 1035.625,25.8125 C1035.1719,26.2969 1035.1719,26.2969 1034.9844,26.3906 C1034.5625,26.6563 1033.875,26.7813 1033.1094,26.7813 C1031.0625,26.7813 1029.7656,25.6875 1029.7656,23.9844 L1029.7656,22.8906 C1029.7656,21.1094 1031.0156,19.7969 1032.75,19.7969 C1033.3281,19.7969 1033.9375,19.9531 1034.4063,20.2031 C1034.8906,20.4844 1035.0625,20.7031 1035.1563,21.1094 C1035.2188,21.5156 1035.25,21.6406 1035.3906,21.7656 C1035.5313,21.9063 1035.7656,22.0156 1035.9844,22.0156 C1036.25,22.0156 1036.5156,21.875 1036.6875,21.6563 C1036.7969,21.5 1036.8281,21.3125 1036.8281,20.8906 L1036.8281,19.4688 C1036.8281,19.0313 1036.8125,18.9063 1036.7188,18.75 C1036.5625,18.4844 1036.2813,18.3438 1035.9844,18.3438 C1035.6875,18.3438 1035.4844,18.4375 1035.2656,18.75 L1035.0938,18.6719 Z " fill="#000000"/><text fill="#000000" font-family="sans-serif" font-size="14" lengthAdjust="spacing" textLength="58" x="1053.25" y="27.8467">Student</text><line style="stroke:#181818;stroke-width:0.5;" x1="949" x2="1183" y1="39" y2="39"/><rect fill="none" height="6" style="stroke:#C82930;stroke-width:1.0;" width="6" x="956" y="49.6484"/><text fill="#000000" font-family="sans-serif" font-size="14" lengthAdjust="spacing" textLength="144" x="968" y="55.9951">Reg_number: String</text><rect fill="none" height="6" style="stroke:#C82930;stroke-width:1.0;" width="6" x="956" y="65.9453"/><text fill="#000000" font-family="sans-serif" font-size="14" lengthAdjust="spacing" textLength="100" x="968" y="72.292">advisor_id: int</text><rect fill="none" height="6" style="stroke:#C82930;stroke-width:1.0;" width="6" x="956" y="82.2422"/><text fill="#000000" font-family="sans-serif" font-size="14" lengthAdjust="spacing" textLength="117" x="968" y="88.5889">Fullname: String</text><rect fill="none" height="6" style="stroke:#C82930;stroke-width:1.0;" width="6" x="956" y="98.5391"/><text fill="#000000" font-family="sans-serif" font-size="14" lengthAdjust="spacing" textLength="188" x="968" y="104.8857">department_name: String</text><rect fill="none" height="6" style="stroke:#C82930;stroke-width:1.0;" width="6" x="956" y="114.8359"/><text fill="#000000" font-family="sans-serif" font-size="14" lengthAdjust="spacing" textLength="168" x="968" y="121.1826">Academic_Level: String</text><rect fill="none" height="6" style="stroke:#C82930;stroke-width:1.0;" width="6" x="956" y="131.1328"/><text fill="#000000" font-family="sans-serif" font-size="14" lengthAdjust="spacing" textLength="92" x="968" y="137.4795">email: String</text><rect fill="none" height="6" style="stroke:#C82930;stroke-width:1.0;" width="6" x="956" y="147.4297"/><text fill="#000000" font-family="sans-serif" font-size="14" lengthAdjust="spacing" textLength="120" x="968" y="153.7764">password: String</text><rect fill="none" height="6" style="stroke:#C82930;stroke-width:1.0;" width="6" x="956" y="163.7266"/><text fill="#000000" font-family="sans-serif" font-size="14" lengthAdjust="spacing" textLength="141" x="968" y="170.0732">reset_token: String</text><rect fill="none" height="6" style="stroke:#C82930;stroke-width:1.0;" width="6" x="956" y="180.0234"/><text fill="#000000" font-family="sans-serif" font-size="14" lengthAdjust="spacing" textLength="169" x="968" y="186.3701">reset_token_expiry: int</text><rect fill="none" height="6" style="stroke:#C82930;stroke-width:1.0;" width="6" x="956" y="196.3203"/><text fill="#000000" font-family="sans-serif" font-size="14" lengthAdjust="spacing" textLength="169" x="968" y="202.667">created_at: Timestamp</text><rect fill="none" height="6" style="stroke:#C82930;stroke-width:1.0;" width="6" x="956" y="212.6172"/><text fill="#000000" font-family="sans-serif" font-size="14" lengthAdjust="spacing" textLength="97" x="968" y="218.9639">image: String</text><rect fill="none" height="6" style="stroke:#C82930;stroke-width:1.0;" width="6" x="956" y="228.9141"/><text fill="#000000" font-family="sans-serif" font-size="14" lengthAdjust="spacing" textLength="107" x="968" y="235.2607">student_ID: int</text><rect fill="none" height="6" style="stroke:#C82930;stroke-width:1.0;" width="6" x="956" y="245.2109"/><text fill="#000000" font-family="sans-serif" font-size="14" lengthAdjust="spacing" textLength="116" x="968" y="251.5576">message: String</text><line style="stroke:#181818;stroke-width:0.5;" x1="949" x2="1183" y1="258.8594" y2="258.8594"/><ellipse cx="959" cy="272.5078" fill="#84BE84" rx="3" ry="3" style="stroke:#038048;stroke-width:1.0;"/><text fill="#000000" font-family="sans-serif" font-size="14" lengthAdjust="spacing" textLength="186" x="968" y="275.8545">viewAppointments(): void</text><ellipse cx="959" cy="288.8047" fill="#84BE84" rx="3" ry="3" style="stroke:#038048;stroke-width:1.0;"/><text fill="#000000" font-family="sans-serif" font-size="14" lengthAdjust="spacing" textLength="210" x="968" y="292.1514">scheduleAppointment(): void</text><ellipse cx="959" cy="305.1016" fill="#84BE84" rx="3" ry="3" style="stroke:#038048;stroke-width:1.0;"/><text fill="#000000" font-family="sans-serif" font-size="14" lengthAdjust="spacing" textLength="150" x="968" y="308.4482">submitReport(): void</text><ellipse cx="959" cy="321.3984" fill="#84BE84" rx="3" ry="3" style="stroke:#038048;stroke-width:1.0;"/><text fill="#000000" font-family="sans-serif" font-size="14" lengthAdjust="spacing" textLength="137" x="968" y="324.7451">askQuestion(): void</text></g><!--class Department--><g id="elem_Department"><rect codeLine="43" fill="#F1F1F1" height="96.8906" id="Department" rx="2.5" ry="2.5" style="stroke:#181818;stroke-width:0.5;" width="214" x="7" y="121"/><ellipse cx="64.75" cy="137" fill="#ADD1B2" rx="11" ry="11" style="stroke:#181818;stroke-width:1.0;"/><path d="M67.0938,132.6719 C66.1563,132.2344 65.5625,132.0938 64.6875,132.0938 C62.0625,132.0938 60.0625,134.1719 60.0625,136.8906 L60.0625,138.0156 C60.0625,140.5938 62.1719,142.4844 65.0625,142.4844 C66.2813,142.4844 67.4375,142.1875 68.1875,141.6406 C68.7656,141.2344 69.0938,140.7813 69.0938,140.3906 C69.0938,139.9375 68.7031,139.5469 68.2344,139.5469 C68.0156,139.5469 67.8125,139.625 67.625,139.8125 C67.1719,140.2969 67.1719,140.2969 66.9844,140.3906 C66.5625,140.6563 65.875,140.7813 65.1094,140.7813 C63.0625,140.7813 61.7656,139.6875 61.7656,137.9844 L61.7656,136.8906 C61.7656,135.1094 63.0156,133.7969 64.75,133.7969 C65.3281,133.7969 65.9375,133.9531 66.4063,134.2031 C66.8906,134.4844 67.0625,134.7031 67.1563,135.1094 C67.2188,135.5156 67.25,135.6406 67.3906,135.7656 C67.5313,135.9063 67.7656,136.0156 67.9844,136.0156 C68.25,136.0156 68.5156,135.875 68.6875,135.6563 C68.7969,135.5 68.8281,135.3125 68.8281,134.8906 L68.8281,133.4688 C68.8281,133.0313 68.8125,132.9063 68.7188,132.75 C68.5625,132.4844 68.2813,132.3438 67.9844,132.3438 C67.6875,132.3438 67.4844,132.4375 67.2656,132.75 L67.0938,132.6719 Z " fill="#000000"/><text fill="#000000" font-family="sans-serif" font-size="14" lengthAdjust="spacing" textLength="90" x="85.25" y="141.8467">Department</text><line style="stroke:#181818;stroke-width:0.5;" x1="8" x2="220" y1="153" y2="153"/><rect fill="none" height="6" style="stroke:#C82930;stroke-width:1.0;" width="6" x="15" y="163.6484"/><text fill="#000000" font-family="sans-serif" font-size="14" lengthAdjust="spacing" textLength="161" x="27" y="169.9951">department_id: String</text><rect fill="none" height="6" style="stroke:#C82930;stroke-width:1.0;" width="6" x="15" y="179.9453"/><text fill="#000000" font-family="sans-serif" font-size="14" lengthAdjust="spacing" textLength="188" x="27" y="186.292">department_name: String</text><rect fill="none" height="6" style="stroke:#C82930;stroke-width:1.0;" width="6" x="15" y="196.2422"/><text fill="#000000" font-family="sans-serif" font-size="14" lengthAdjust="spacing" textLength="169" x="27" y="202.5889">created_at: Timestamp</text><line style="stroke:#181818;stroke-width:0.5;" x1="8" x2="220" y1="209.8906" y2="209.8906"/></g><!--class Appointment--><g id="elem_Appointment"><rect codeLine="49" fill="#F1F1F1" height="243.5625" id="Appointment" rx="2.5" ry="2.5" style="stroke:#181818;stroke-width:0.5;" width="229" x="256.5" y="47.5"/><ellipse cx="317.75" cy="63.5" fill="#ADD1B2" rx="11" ry="11" style="stroke:#181818;stroke-width:1.0;"/><path d="M320.0938,59.1719 C319.1563,58.7344 318.5625,58.5938 317.6875,58.5938 C315.0625,58.5938 313.0625,60.6719 313.0625,63.3906 L313.0625,64.5156 C313.0625,67.0938 315.1719,68.9844 318.0625,68.9844 C319.2813,68.9844 320.4375,68.6875 321.1875,68.1406 C321.7656,67.7344 322.0938,67.2813 322.0938,66.8906 C322.0938,66.4375 321.7031,66.0469 321.2344,66.0469 C321.0156,66.0469 320.8125,66.125 320.625,66.3125 C320.1719,66.7969 320.1719,66.7969 319.9844,66.8906 C319.5625,67.1563 318.875,67.2813 318.1094,67.2813 C316.0625,67.2813 314.7656,66.1875 314.7656,64.4844 L314.7656,63.3906 C314.7656,61.6094 316.0156,60.2969 317.75,60.2969 C318.3281,60.2969 318.9375,60.4531 319.4063,60.7031 C319.8906,60.9844 320.0625,61.2031 320.1563,61.6094 C320.2188,62.0156 320.25,62.1406 320.3906,62.2656 C320.5313,62.4063 320.7656,62.5156 320.9844,62.5156 C321.25,62.5156 321.5156,62.375 321.6875,62.1563 C321.7969,62 321.8281,61.8125 321.8281,61.3906 L321.8281,59.9688 C321.8281,59.5313 321.8125,59.4063 321.7188,59.25 C321.5625,58.9844 321.2813,58.8438 320.9844,58.8438 C320.6875,58.8438 320.4844,58.9375 320.2656,59.25 L320.0938,59.1719 Z " fill="#000000"/><text fill="#000000" font-family="sans-serif" font-size="14" lengthAdjust="spacing" textLength="98" x="338.25" y="68.3467">Appointment</text><line style="stroke:#181818;stroke-width:0.5;" x1="257.5" x2="484.5" y1="79.5" y2="79.5"/><rect fill="none" height="6" style="stroke:#C82930;stroke-width:1.0;" width="6" x="264.5" y="90.1484"/><text fill="#000000" font-family="sans-serif" font-size="14" lengthAdjust="spacing" textLength="42" x="276.5" y="96.4951">id: int</text><rect fill="none" height="6" style="stroke:#C82930;stroke-width:1.0;" width="6" x="264.5" y="106.4453"/><text fill="#000000" font-family="sans-serif" font-size="14" lengthAdjust="spacing" textLength="100" x="276.5" y="112.792">advisor_id: int</text><rect fill="none" height="6" style="stroke:#C82930;stroke-width:1.0;" width="6" x="264.5" y="122.7422"/><text fill="#000000" font-family="sans-serif" font-size="14" lengthAdjust="spacing" textLength="190" x="276.5" y="129.0889">appointment_type: String</text><rect fill="none" height="6" style="stroke:#C82930;stroke-width:1.0;" width="6" x="264.5" y="139.0391"/><text fill="#000000" font-family="sans-serif" font-size="14" lengthAdjust="spacing" textLength="144" x="276.5" y="145.3857">Reg_number: String</text><rect fill="none" height="6" style="stroke:#C82930;stroke-width:1.0;" width="6" x="264.5" y="155.3359"/><text fill="#000000" font-family="sans-serif" font-size="14" lengthAdjust="spacing" textLength="180" x="276.5" y="161.6826">appointment_date: Date</text><rect fill="none" height="6" style="stroke:#C82930;stroke-width:1.0;" width="6" x="264.5" y="171.6328"/><text fill="#000000" font-family="sans-serif" font-size="14" lengthAdjust="spacing" textLength="182" x="276.5" y="177.9795">appointment_time: Time</text><rect fill="none" height="6" style="stroke:#C82930;stroke-width:1.0;" width="6" x="264.5" y="187.9297"/><text fill="#000000" font-family="sans-serif" font-size="14" lengthAdjust="spacing" textLength="101" x="276.5" y="194.2764">reason: String</text><rect fill="none" height="6" style="stroke:#C82930;stroke-width:1.0;" width="6" x="264.5" y="204.2266"/><text fill="#000000" font-family="sans-serif" font-size="14" lengthAdjust="spacing" textLength="97" x="276.5" y="210.5732">status: String</text><rect fill="none" height="6" style="stroke:#C82930;stroke-width:1.0;" width="6" x="264.5" y="220.5234"/><text fill="#000000" font-family="sans-serif" font-size="14" lengthAdjust="spacing" textLength="169" x="276.5" y="226.8701">created_at: Timestamp</text><rect fill="none" height="6" style="stroke:#C82930;stroke-width:1.0;" width="6" x="264.5" y="236.8203"/><text fill="#000000" font-family="sans-serif" font-size="14" lengthAdjust="spacing" textLength="173" x="276.5" y="243.167">updated_at: Timestamp</text><line style="stroke:#181818;stroke-width:0.5;" x1="257.5" x2="484.5" y1="250.4688" y2="250.4688"/><ellipse cx="267.5" cy="264.1172" fill="#84BE84" rx="3" ry="3" style="stroke:#038048;stroke-width:1.0;"/><text fill="#000000" font-family="sans-serif" font-size="14" lengthAdjust="spacing" textLength="203" x="276.5" y="267.4639">confirmAppointment(): void</text><ellipse cx="267.5" cy="280.4141" fill="#84BE84" rx="3" ry="3" style="stroke:#038048;stroke-width:1.0;"/><text fill="#000000" font-family="sans-serif" font-size="14" lengthAdjust="spacing" textLength="193" x="276.5" y="283.7607">cancelAppointment(): void</text></g><!--class Conversation--><g id="elem_Conversation"><rect codeLine="64" fill="#F1F1F1" height="96.8906" id="Conversation" rx="2.5" ry="2.5" style="stroke:#181818;stroke-width:0.5;" width="131" x="520.5" y="121"/><ellipse cx="537.3" cy="137" fill="#ADD1B2" rx="11" ry="11" style="stroke:#181818;stroke-width:1.0;"/><path d="M539.6438,132.6719 C538.7063,132.2344 538.1125,132.0938 537.2375,132.0938 C534.6125,132.0938 532.6125,134.1719 532.6125,136.8906 L532.6125,138.0156 C532.6125,140.5938 534.7219,142.4844 537.6125,142.4844 C538.8313,142.4844 539.9875,142.1875 540.7375,141.6406 C541.3156,141.2344 541.6438,140.7813 541.6438,140.3906 C541.6438,139.9375 541.2531,139.5469 540.7844,139.5469 C540.5656,139.5469 540.3625,139.625 540.175,139.8125 C539.7219,140.2969 539.7219,140.2969 539.5344,140.3906 C539.1125,140.6563 538.425,140.7813 537.6594,140.7813 C535.6125,140.7813 534.3156,139.6875 534.3156,137.9844 L534.3156,136.8906 C534.3156,135.1094 535.5656,133.7969 537.3,133.7969 C537.8781,133.7969 538.4875,133.9531 538.9563,134.2031 C539.4406,134.4844 539.6125,134.7031 539.7063,135.1094 C539.7688,135.5156 539.8,135.6406 539.9406,135.7656 C540.0813,135.9063 540.3156,136.0156 540.5344,136.0156 C540.8,136.0156 541.0656,135.875 541.2375,135.6563 C541.3469,135.5 541.3781,135.3125 541.3781,134.8906 L541.3781,133.4688 C541.3781,133.0313 541.3625,132.9063 541.2688,132.75 C541.1125,132.4844 540.8313,132.3438 540.5344,132.3438 C540.2375,132.3438 540.0344,132.4375 539.8156,132.75 L539.6438,132.6719 Z " fill="#000000"/><text fill="#000000" font-family="sans-serif" font-size="14" lengthAdjust="spacing" textLength="95" x="551.7" y="141.8467">Conversation</text><line style="stroke:#181818;stroke-width:0.5;" x1="521.5" x2="650.5" y1="153" y2="153"/><rect fill="none" height="6" style="stroke:#C82930;stroke-width:1.0;" width="6" x="528.5" y="163.6484"/><text fill="#000000" font-family="sans-serif" font-size="14" lengthAdjust="spacing" textLength="42" x="540.5" y="169.9951">id: int</text><rect fill="none" height="6" style="stroke:#C82930;stroke-width:1.0;" width="6" x="528.5" y="179.9453"/><text fill="#000000" font-family="sans-serif" font-size="14" lengthAdjust="spacing" textLength="100" x="540.5" y="186.292">advisor_id: int</text><rect fill="none" height="6" style="stroke:#C82930;stroke-width:1.0;" width="6" x="528.5" y="196.2422"/><text fill="#000000" font-family="sans-serif" font-size="14" lengthAdjust="spacing" textLength="105" x="540.5" y="202.5889">student_id: int</text><line style="stroke:#181818;stroke-width:0.5;" x1="521.5" x2="650.5" y1="209.8906" y2="209.8906"/></g><!--class CourseRegistration--><g id="elem_CourseRegistration"><rect codeLine="70" fill="#F1F1F1" height="194.6719" id="CourseRegistration" rx="2.5" ry="2.5" style="stroke:#181818;stroke-width:0.5;" width="222" x="687" y="72"/><ellipse cx="725.4" cy="88" fill="#ADD1B2" rx="11" ry="11" style="stroke:#181818;stroke-width:1.0;"/><path d="M727.7438,83.6719 C726.8063,83.2344 726.2125,83.0938 725.3375,83.0938 C722.7125,83.0938 720.7125,85.1719 720.7125,87.8906 L720.7125,89.0156 C720.7125,91.5938 722.8219,93.4844 725.7125,93.4844 C726.9313,93.4844 728.0875,93.1875 728.8375,92.6406 C729.4156,92.2344 729.7438,91.7813 729.7438,91.3906 C729.7438,90.9375 729.3531,90.5469 728.8844,90.5469 C728.6656,90.5469 728.4625,90.625 728.275,90.8125 C727.8219,91.2969 727.8219,91.2969 727.6344,91.3906 C727.2125,91.6563 726.525,91.7813 725.7594,91.7813 C723.7125,91.7813 722.4156,90.6875 722.4156,88.9844 L722.4156,87.8906 C722.4156,86.1094 723.6656,84.7969 725.4,84.7969 C725.9781,84.7969 726.5875,84.9531 727.0563,85.2031 C727.5406,85.4844 727.7125,85.7031 727.8063,86.1094 C727.8688,86.5156 727.9,86.6406 728.0406,86.7656 C728.1813,86.9063 728.4156,87.0156 728.6344,87.0156 C728.9,87.0156 729.1656,86.875 729.3375,86.6563 C729.4469,86.5 729.4781,86.3125 729.4781,85.8906 L729.4781,84.4688 C729.4781,84.0313 729.4625,83.9063 729.3688,83.75 C729.2125,83.4844 728.9313,83.3438 728.6344,83.3438 C728.3375,83.3438 728.1344,83.4375 727.9156,83.75 L727.7438,83.6719 Z " fill="#000000"/><text fill="#000000" font-family="sans-serif" font-size="14" lengthAdjust="spacing" textLength="138" x="744.6" y="92.8467">CourseRegistration</text><line style="stroke:#181818;stroke-width:0.5;" x1="688" x2="908" y1="104" y2="104"/><rect fill="none" height="6" style="stroke:#C82930;stroke-width:1.0;" width="6" x="695" y="114.6484"/><text fill="#000000" font-family="sans-serif" font-size="14" lengthAdjust="spacing" textLength="115" x="707" y="120.9951">program: String</text><rect fill="none" height="6" style="stroke:#C82930;stroke-width:1.0;" width="6" x="695" y="130.9453"/><text fill="#000000" font-family="sans-serif" font-size="14" lengthAdjust="spacing" textLength="168" x="707" y="137.292">Academic_Level: String</text><rect fill="none" height="6" style="stroke:#C82930;stroke-width:1.0;" width="6" x="695" y="147.2422"/><text fill="#000000" font-family="sans-serif" font-size="14" lengthAdjust="spacing" textLength="147" x="707" y="153.5889">course_name: String</text><rect fill="none" height="6" style="stroke:#C82930;stroke-width:1.0;" width="6" x="695" y="163.5391"/><text fill="#000000" font-family="sans-serif" font-size="14" lengthAdjust="spacing" textLength="142" x="707" y="169.8857">course_code: String</text><rect fill="none" height="6" style="stroke:#C82930;stroke-width:1.0;" width="6" x="695" y="179.8359"/><text fill="#000000" font-family="sans-serif" font-size="14" lengthAdjust="spacing" textLength="141" x="707" y="186.1826">department: String</text><rect fill="none" height="6" style="stroke:#C82930;stroke-width:1.0;" width="6" x="695" y="196.1328"/><text fill="#000000" font-family="sans-serif" font-size="14" lengthAdjust="spacing" textLength="107" x="707" y="202.4795">credit_unit: int</text><rect fill="none" height="6" style="stroke:#C82930;stroke-width:1.0;" width="6" x="695" y="212.4297"/><text fill="#000000" font-family="sans-serif" font-size="14" lengthAdjust="spacing" textLength="180" x="707" y="218.7764">academic_session: String</text><rect fill="none" height="6" style="stroke:#C82930;stroke-width:1.0;" width="6" x="695" y="228.7266"/><text fill="#000000" font-family="sans-serif" font-size="14" lengthAdjust="spacing" textLength="196" x="707" y="235.0732">academic_semester: String</text><rect fill="none" height="6" style="stroke:#C82930;stroke-width:1.0;" width="6" x="695" y="245.0234"/><text fill="#000000" font-family="sans-serif" font-size="14" lengthAdjust="spacing" textLength="100" x="707" y="251.3701">advisor_id: int</text><line style="stroke:#181818;stroke-width:0.5;" x1="688" x2="908" y1="258.6719" y2="258.6719"/></g><!--class FAQ--><g id="elem_FAQ"><rect codeLine="82" fill="#F1F1F1" height="96.8906" id="FAQ" rx="2.5" ry="2.5" style="stroke:#181818;stroke-width:0.5;" width="141" x="43.5" y="466"/><ellipse cx="95.25" cy="482" fill="#ADD1B2" rx="11" ry="11" style="stroke:#181818;stroke-width:1.0;"/><path d="M97.5938,477.6719 C96.6563,477.2344 96.0625,477.0938 95.1875,477.0938 C92.5625,477.0938 90.5625,479.1719 90.5625,481.8906 L90.5625,483.0156 C90.5625,485.5938 92.6719,487.4844 95.5625,487.4844 C96.7813,487.4844 97.9375,487.1875 98.6875,486.6406 C99.2656,486.2344 99.5938,485.7813 99.5938,485.3906 C99.5938,484.9375 99.2031,484.5469 98.7344,484.5469 C98.5156,484.5469 98.3125,484.625 98.125,484.8125 C97.6719,485.2969 97.6719,485.2969 97.4844,485.3906 C97.0625,485.6563 96.375,485.7813 95.6094,485.7813 C93.5625,485.7813 92.2656,484.6875 92.2656,482.9844 L92.2656,481.8906 C92.2656,480.1094 93.5156,478.7969 95.25,478.7969 C95.8281,478.7969 96.4375,478.9531 96.9063,479.2031 C97.3906,479.4844 97.5625,479.7031 97.6563,480.1094 C97.7188,480.5156 97.75,480.6406 97.8906,480.7656 C98.0313,480.9063 98.2656,481.0156 98.4844,481.0156 C98.75,481.0156 99.0156,480.875 99.1875,480.6563 C99.2969,480.5 99.3281,480.3125 99.3281,479.8906 L99.3281,478.4688 C99.3281,478.0313 99.3125,477.9063 99.2188,477.75 C99.0625,477.4844 98.7813,477.3438 98.4844,477.3438 C98.1875,477.3438 97.9844,477.4375 97.7656,477.75 L97.5938,477.6719 Z " fill="#000000"/><text fill="#000000" font-family="sans-serif" font-size="14" lengthAdjust="spacing" textLength="29" x="115.75" y="486.8467">FAQ</text><line style="stroke:#181818;stroke-width:0.5;" x1="44.5" x2="183.5" y1="498" y2="498"/><rect fill="none" height="6" style="stroke:#C82930;stroke-width:1.0;" width="6" x="51.5" y="508.6484"/><text fill="#000000" font-family="sans-serif" font-size="14" lengthAdjust="spacing" textLength="42" x="63.5" y="514.9951">id: int</text><rect fill="none" height="6" style="stroke:#C82930;stroke-width:1.0;" width="6" x="51.5" y="524.9453"/><text fill="#000000" font-family="sans-serif" font-size="14" lengthAdjust="spacing" textLength="115" x="63.5" y="531.292">question: String</text><rect fill="none" height="6" style="stroke:#C82930;stroke-width:1.0;" width="6" x="51.5" y="541.2422"/><text fill="#000000" font-family="sans-serif" font-size="14" lengthAdjust="spacing" textLength="103" x="63.5" y="547.5889">answer: String</text><line style="stroke:#181818;stroke-width:0.5;" x1="44.5" x2="183.5" y1="554.8906" y2="554.8906"/></g><!--class FrequentlyAskedQuestions--><g id="elem_FrequentlyAskedQuestions"><rect codeLine="88" fill="#F1F1F1" height="80.5938" id="FrequentlyAskedQuestions" rx="2.5" ry="2.5" style="stroke:#181818;stroke-width:0.5;" width="224" x="220" y="474"/><ellipse cx="235" cy="490" fill="#ADD1B2" rx="11" ry="11" style="stroke:#181818;stroke-width:1.0;"/><path d="M237.3438,485.6719 C236.4063,485.2344 235.8125,485.0938 234.9375,485.0938 C232.3125,485.0938 230.3125,487.1719 230.3125,489.8906 L230.3125,491.0156 C230.3125,493.5938 232.4219,495.4844 235.3125,495.4844 C236.5313,495.4844 237.6875,495.1875 238.4375,494.6406 C239.0156,494.2344 239.3438,493.7813 239.3438,493.3906 C239.3438,492.9375 238.9531,492.5469 238.4844,492.5469 C238.2656,492.5469 238.0625,492.625 237.875,492.8125 C237.4219,493.2969 237.4219,493.2969 237.2344,493.3906 C236.8125,493.6563 236.125,493.7813 235.3594,493.7813 C233.3125,493.7813 232.0156,492.6875 232.0156,490.9844 L232.0156,489.8906 C232.0156,488.1094 233.2656,486.7969 235,486.7969 C235.5781,486.7969 236.1875,486.9531 236.6563,487.2031 C237.1406,487.4844 237.3125,487.7031 237.4063,488.1094 C237.4688,488.5156 237.5,488.6406 237.6406,488.7656 C237.7813,488.9063 238.0156,489.0156 238.2344,489.0156 C238.5,489.0156 238.7656,488.875 238.9375,488.6563 C239.0469,488.5 239.0781,488.3125 239.0781,487.8906 L239.0781,486.4688 C239.0781,486.0313 239.0625,485.9063 238.9688,485.75 C238.8125,485.4844 238.5313,485.3438 238.2344,485.3438 C237.9375,485.3438 237.7344,485.4375 237.5156,485.75 L237.3438,485.6719 Z " fill="#000000"/><text fill="#000000" font-family="sans-serif" font-size="14" lengthAdjust="spacing" textLength="192" x="249" y="494.8467">FrequentlyAskedQuestions</text><line style="stroke:#181818;stroke-width:0.5;" x1="221" x2="443" y1="506" y2="506"/><rect fill="none" height="6" style="stroke:#C82930;stroke-width:1.0;" width="6" x="228" y="516.6484"/><text fill="#000000" font-family="sans-serif" font-size="14" lengthAdjust="spacing" textLength="42" x="240" y="522.9951">id: int</text><rect fill="none" height="6" style="stroke:#C82930;stroke-width:1.0;" width="6" x="228" y="532.9453"/><text fill="#000000" font-family="sans-serif" font-size="14" lengthAdjust="spacing" textLength="111" x="240" y="539.292">question_id: int</text><line style="stroke:#181818;stroke-width:0.5;" x1="221" x2="443" y1="546.5938" y2="546.5938"/></g><!--class Message--><g id="elem_Message"><rect codeLine="93" fill="#F1F1F1" height="129.4844" id="Message" rx="2.5" ry="2.5" style="stroke:#181818;stroke-width:0.5;" width="197" x="479.5" y="450"/><ellipse cx="543.25" cy="466" fill="#ADD1B2" rx="11" ry="11" style="stroke:#181818;stroke-width:1.0;"/><path d="M545.5938,461.6719 C544.6563,461.2344 544.0625,461.0938 543.1875,461.0938 C540.5625,461.0938 538.5625,463.1719 538.5625,465.8906 L538.5625,467.0156 C538.5625,469.5938 540.6719,471.4844 543.5625,471.4844 C544.7813,471.4844 545.9375,471.1875 546.6875,470.6406 C547.2656,470.2344 547.5938,469.7813 547.5938,469.3906 C547.5938,468.9375 547.2031,468.5469 546.7344,468.5469 C546.5156,468.5469 546.3125,468.625 546.125,468.8125 C545.6719,469.2969 545.6719,469.2969 545.4844,469.3906 C545.0625,469.6563 544.375,469.7813 543.6094,469.7813 C541.5625,469.7813 540.2656,468.6875 540.2656,466.9844 L540.2656,465.8906 C540.2656,464.1094 541.5156,462.7969 543.25,462.7969 C543.8281,462.7969 544.4375,462.9531 544.9063,463.2031 C545.3906,463.4844 545.5625,463.7031 545.6563,464.1094 C545.7188,464.5156 545.75,464.6406 545.8906,464.7656 C546.0313,464.9063 546.2656,465.0156 546.4844,465.0156 C546.75,465.0156 547.0156,464.875 547.1875,464.6563 C547.2969,464.5 547.3281,464.3125 547.3281,463.8906 L547.3281,462.4688 C547.3281,462.0313 547.3125,461.9063 547.2188,461.75 C547.0625,461.4844 546.7813,461.3438 546.4844,461.3438 C546.1875,461.3438 545.9844,461.4375 545.7656,461.75 L545.5938,461.6719 Z " fill="#000000"/><text fill="#000000" font-family="sans-serif" font-size="14" lengthAdjust="spacing" textLength="61" x="563.75" y="470.8467">Message</text><line style="stroke:#181818;stroke-width:0.5;" x1="480.5" x2="675.5" y1="482" y2="482"/><rect fill="none" height="6" style="stroke:#C82930;stroke-width:1.0;" width="6" x="487.5" y="492.6484"/><text fill="#000000" font-family="sans-serif" font-size="14" lengthAdjust="spacing" textLength="42" x="499.5" y="498.9951">id: int</text><rect fill="none" height="6" style="stroke:#C82930;stroke-width:1.0;" width="6" x="487.5" y="508.9453"/><text fill="#000000" font-family="sans-serif" font-size="14" lengthAdjust="spacing" textLength="142" x="499.5" y="515.292">conversation_id: int</text><rect fill="none" height="6" style="stroke:#C82930;stroke-width:1.0;" width="6" x="487.5" y="525.2422"/><text fill="#000000" font-family="sans-serif" font-size="14" lengthAdjust="spacing" textLength="98" x="499.5" y="531.5889">sender_id: int</text><rect fill="none" height="6" style="stroke:#C82930;stroke-width:1.0;" width="6" x="487.5" y="541.5391"/><text fill="#000000" font-family="sans-serif" font-size="14" lengthAdjust="spacing" textLength="116" x="499.5" y="547.8857">message: String</text><rect fill="none" height="6" style="stroke:#C82930;stroke-width:1.0;" width="6" x="487.5" y="557.8359"/><text fill="#000000" font-family="sans-serif" font-size="14" lengthAdjust="spacing" textLength="171" x="499.5" y="564.1826">timestamp: Timestamp</text><line style="stroke:#181818;stroke-width:0.5;" x1="480.5" x2="675.5" y1="571.4844" y2="571.4844"/></g><!--class Notification--><g id="elem_Notification"><rect codeLine="101" fill="#F1F1F1" height="129.4844" id="Notification" rx="2.5" ry="2.5" style="stroke:#181818;stroke-width:0.5;" width="197" x="711.5" y="450"/><ellipse cx="763.25" cy="466" fill="#ADD1B2" rx="11" ry="11" style="stroke:#181818;stroke-width:1.0;"/><path d="M765.5938,461.6719 C764.6563,461.2344 764.0625,461.0938 763.1875,461.0938 C760.5625,461.0938 758.5625,463.1719 758.5625,465.8906 L758.5625,467.0156 C758.5625,469.5938 760.6719,471.4844 763.5625,471.4844 C764.7813,471.4844 765.9375,471.1875 766.6875,470.6406 C767.2656,470.2344 767.5938,469.7813 767.5938,469.3906 C767.5938,468.9375 767.2031,468.5469 766.7344,468.5469 C766.5156,468.5469 766.3125,468.625 766.125,468.8125 C765.6719,469.2969 765.6719,469.2969 765.4844,469.3906 C765.0625,469.6563 764.375,469.7813 763.6094,469.7813 C761.5625,469.7813 760.2656,468.6875 760.2656,466.9844 L760.2656,465.8906 C760.2656,464.1094 761.5156,462.7969 763.25,462.7969 C763.8281,462.7969 764.4375,462.9531 764.9063,463.2031 C765.3906,463.4844 765.5625,463.7031 765.6563,464.1094 C765.7188,464.5156 765.75,464.6406 765.8906,464.7656 C766.0313,464.9063 766.2656,465.0156 766.4844,465.0156 C766.75,465.0156 767.0156,464.875 767.1875,464.6563 C767.2969,464.5 767.3281,464.3125 767.3281,463.8906 L767.3281,462.4688 C767.3281,462.0313 767.3125,461.9063 767.2188,461.75 C767.0625,461.4844 766.7813,461.3438 766.4844,461.3438 C766.1875,461.3438 765.9844,461.4375 765.7656,461.75 L765.5938,461.6719 Z " fill="#000000"/><text fill="#000000" font-family="sans-serif" font-size="14" lengthAdjust="spacing" textLength="85" x="783.75" y="470.8467">Notification</text><line style="stroke:#181818;stroke-width:0.5;" x1="712.5" x2="907.5" y1="482" y2="482"/><rect fill="none" height="6" style="stroke:#C82930;stroke-width:1.0;" width="6" x="719.5" y="492.6484"/><text fill="#000000" font-family="sans-serif" font-size="14" lengthAdjust="spacing" textLength="42" x="731.5" y="498.9951">id: int</text><rect fill="none" height="6" style="stroke:#C82930;stroke-width:1.0;" width="6" x="719.5" y="508.9453"/><text fill="#000000" font-family="sans-serif" font-size="14" lengthAdjust="spacing" textLength="144" x="731.5" y="515.292">Reg_number: String</text><rect fill="none" height="6" style="stroke:#C82930;stroke-width:1.0;" width="6" x="719.5" y="525.2422"/><text fill="#000000" font-family="sans-serif" font-size="14" lengthAdjust="spacing" textLength="116" x="731.5" y="531.5889">message: String</text><rect fill="none" height="6" style="stroke:#C82930;stroke-width:1.0;" width="6" x="719.5" y="541.5391"/><text fill="#000000" font-family="sans-serif" font-size="14" lengthAdjust="spacing" textLength="100" x="731.5" y="547.8857">advisor_id: int</text><rect fill="none" height="6" style="stroke:#C82930;stroke-width:1.0;" width="6" x="719.5" y="557.8359"/><text fill="#000000" font-family="sans-serif" font-size="14" lengthAdjust="spacing" textLength="171" x="731.5" y="564.1826">timestamp: Timestamp</text><line style="stroke:#181818;stroke-width:0.5;" x1="712.5" x2="907.5" y1="571.4844" y2="571.4844"/></g><!--class Question--><g id="elem_Question"><rect codeLine="109" fill="#F1F1F1" height="96.8906" id="Question" rx="2.5" ry="2.5" style="stroke:#181818;stroke-width:0.5;" width="141" x="43.5" y="737.5"/><ellipse cx="78.75" cy="753.5" fill="#ADD1B2" rx="11" ry="11" style="stroke:#181818;stroke-width:1.0;"/><path d="M81.0938,749.1719 C80.1563,748.7344 79.5625,748.5938 78.6875,748.5938 C76.0625,748.5938 74.0625,750.6719 74.0625,753.3906 L74.0625,754.5156 C74.0625,757.0938 76.1719,758.9844 79.0625,758.9844 C80.2813,758.9844 81.4375,758.6875 82.1875,758.1406 C82.7656,757.7344 83.0938,757.2813 83.0938,756.8906 C83.0938,756.4375 82.7031,756.0469 82.2344,756.0469 C82.0156,756.0469 81.8125,756.125 81.625,756.3125 C81.1719,756.7969 81.1719,756.7969 80.9844,756.8906 C80.5625,757.1563 79.875,757.2813 79.1094,757.2813 C77.0625,757.2813 75.7656,756.1875 75.7656,754.4844 L75.7656,753.3906 C75.7656,751.6094 77.0156,750.2969 78.75,750.2969 C79.3281,750.2969 79.9375,750.4531 80.4063,750.7031 C80.8906,750.9844 81.0625,751.2031 81.1563,751.6094 C81.2188,752.0156 81.25,752.1406 81.3906,752.2656 C81.5313,752.4063 81.7656,752.5156 81.9844,752.5156 C82.25,752.5156 82.5156,752.375 82.6875,752.1563 C82.7969,752 82.8281,751.8125 82.8281,751.3906 L82.8281,749.9688 C82.8281,749.5313 82.8125,749.4063 82.7188,749.25 C82.5625,748.9844 82.2813,748.8438 81.9844,748.8438 C81.6875,748.8438 81.4844,748.9375 81.2656,749.25 L81.0938,749.1719 Z " fill="#000000"/><text fill="#000000" font-family="sans-serif" font-size="14" lengthAdjust="spacing" textLength="64" x="97.25" y="758.3467">Question</text><line style="stroke:#181818;stroke-width:0.5;" x1="44.5" x2="183.5" y1="769.5" y2="769.5"/><rect fill="none" height="6" style="stroke:#C82930;stroke-width:1.0;" width="6" x="51.5" y="780.1484"/><text fill="#000000" font-family="sans-serif" font-size="14" lengthAdjust="spacing" textLength="42" x="63.5" y="786.4951">id: int</text><rect fill="none" height="6" style="stroke:#C82930;stroke-width:1.0;" width="6" x="51.5" y="796.4453"/><text fill="#000000" font-family="sans-serif" font-size="14" lengthAdjust="spacing" textLength="115" x="63.5" y="802.792">question: String</text><rect fill="none" height="6" style="stroke:#C82930;stroke-width:1.0;" width="6" x="51.5" y="812.7422"/><text fill="#000000" font-family="sans-serif" font-size="14" lengthAdjust="spacing" textLength="115" x="63.5" y="819.0889">response_id: int</text><line style="stroke:#181818;stroke-width:0.5;" x1="44.5" x2="183.5" y1="826.3906" y2="826.3906"/></g><!--class Report--><g id="elem_Report"><rect codeLine="115" fill="#F1F1F1" height="178.375" id="Report" rx="2.5" ry="2.5" style="stroke:#181818;stroke-width:0.5;" width="197" x="219.5" y="697"/><ellipse cx="288.25" cy="713" fill="#ADD1B2" rx="11" ry="11" style="stroke:#181818;stroke-width:1.0;"/><path d="M290.5938,708.6719 C289.6563,708.2344 289.0625,708.0938 288.1875,708.0938 C285.5625,708.0938 283.5625,710.1719 283.5625,712.8906 L283.5625,714.0156 C283.5625,716.5938 285.6719,718.4844 288.5625,718.4844 C289.7813,718.4844 290.9375,718.1875 291.6875,717.6406 C292.2656,717.2344 292.5938,716.7813 292.5938,716.3906 C292.5938,715.9375 292.2031,715.5469 291.7344,715.5469 C291.5156,715.5469 291.3125,715.625 291.125,715.8125 C290.6719,716.2969 290.6719,716.2969 290.4844,716.3906 C290.0625,716.6563 289.375,716.7813 288.6094,716.7813 C286.5625,716.7813 285.2656,715.6875 285.2656,713.9844 L285.2656,712.8906 C285.2656,711.1094 286.5156,709.7969 288.25,709.7969 C288.8281,709.7969 289.4375,709.9531 289.9063,710.2031 C290.3906,710.4844 290.5625,710.7031 290.6563,711.1094 C290.7188,711.5156 290.75,711.6406 290.8906,711.7656 C291.0313,711.9063 291.2656,712.0156 291.4844,712.0156 C291.75,712.0156 292.0156,711.875 292.1875,711.6563 C292.2969,711.5 292.3281,711.3125 292.3281,710.8906 L292.3281,709.4688 C292.3281,709.0313 292.3125,708.9063 292.2188,708.75 C292.0625,708.4844 291.7813,708.3438 291.4844,708.3438 C291.1875,708.3438 290.9844,708.4375 290.7656,708.75 L290.5938,708.6719 Z " fill="#000000"/><text fill="#000000" font-family="sans-serif" font-size="14" lengthAdjust="spacing" textLength="51" x="308.75" y="717.8467">Report</text><line style="stroke:#181818;stroke-width:0.5;" x1="220.5" x2="415.5" y1="729" y2="729"/><rect fill="none" height="6" style="stroke:#C82930;stroke-width:1.0;" width="6" x="227.5" y="739.6484"/><text fill="#000000" font-family="sans-serif" font-size="14" lengthAdjust="spacing" textLength="42" x="239.5" y="745.9951">id: int</text><rect fill="none" height="6" style="stroke:#C82930;stroke-width:1.0;" width="6" x="227.5" y="755.9453"/><text fill="#000000" font-family="sans-serif" font-size="14" lengthAdjust="spacing" textLength="144" x="239.5" y="762.292">Reg_number: String</text><rect fill="none" height="6" style="stroke:#C82930;stroke-width:1.0;" width="6" x="227.5" y="772.2422"/><text fill="#000000" font-family="sans-serif" font-size="14" lengthAdjust="spacing" textLength="93" x="239.5" y="778.5889">name: String</text><rect fill="none" height="6" style="stroke:#C82930;stroke-width:1.0;" width="6" x="227.5" y="788.5391"/><text fill="#000000" font-family="sans-serif" font-size="14" lengthAdjust="spacing" textLength="92" x="239.5" y="794.8857">email: String</text><rect fill="none" height="6" style="stroke:#C82930;stroke-width:1.0;" width="6" x="227.5" y="804.8359"/><text fill="#000000" font-family="sans-serif" font-size="14" lengthAdjust="spacing" textLength="156" x="239.5" y="811.1826">problem_type: String</text><rect fill="none" height="6" style="stroke:#C82930;stroke-width:1.0;" width="6" x="227.5" y="821.1328"/><text fill="#000000" font-family="sans-serif" font-size="14" lengthAdjust="spacing" textLength="135" x="239.5" y="827.4795">description: String</text><rect fill="none" height="6" style="stroke:#C82930;stroke-width:1.0;" width="6" x="227.5" y="837.4297"/><text fill="#000000" font-family="sans-serif" font-size="14" lengthAdjust="spacing" textLength="116" x="239.5" y="843.7764">filename: String</text><rect fill="none" height="6" style="stroke:#C82930;stroke-width:1.0;" width="6" x="227.5" y="853.7266"/><text fill="#000000" font-family="sans-serif" font-size="14" lengthAdjust="spacing" textLength="171" x="239.5" y="860.0732">timestamp: Timestamp</text><line style="stroke:#181818;stroke-width:0.5;" x1="220.5" x2="415.5" y1="867.375" y2="867.375"/></g><!--class Response--><g id="elem_Response"><rect codeLine="126" fill="#F1F1F1" height="80.5938" id="Response" rx="2.5" ry="2.5" style="stroke:#181818;stroke-width:0.5;" width="215" x="451.5" y="745.5"/><ellipse cx="519.75" cy="761.5" fill="#ADD1B2" rx="11" ry="11" style="stroke:#181818;stroke-width:1.0;"/><path d="M522.0938,757.1719 C521.1563,756.7344 520.5625,756.5938 519.6875,756.5938 C517.0625,756.5938 515.0625,758.6719 515.0625,761.3906 L515.0625,762.5156 C515.0625,765.0938 517.1719,766.9844 520.0625,766.9844 C521.2813,766.9844 522.4375,766.6875 523.1875,766.1406 C523.7656,765.7344 524.0938,765.2813 524.0938,764.8906 C524.0938,764.4375 523.7031,764.0469 523.2344,764.0469 C523.0156,764.0469 522.8125,764.125 522.625,764.3125 C522.1719,764.7969 522.1719,764.7969 521.9844,764.8906 C521.5625,765.1563 520.875,765.2813 520.1094,765.2813 C518.0625,765.2813 516.7656,764.1875 516.7656,762.4844 L516.7656,761.3906 C516.7656,759.6094 518.0156,758.2969 519.75,758.2969 C520.3281,758.2969 520.9375,758.4531 521.4063,758.7031 C521.8906,758.9844 522.0625,759.2031 522.1563,759.6094 C522.2188,760.0156 522.25,760.1406 522.3906,760.2656 C522.5313,760.4063 522.7656,760.5156 522.9844,760.5156 C523.25,760.5156 523.5156,760.375 523.6875,760.1563 C523.7969,760 523.8281,759.8125 523.8281,759.3906 L523.8281,757.9688 C523.8281,757.5313 523.8125,757.4063 523.7188,757.25 C523.5625,756.9844 523.2813,756.8438 522.9844,756.8438 C522.6875,756.8438 522.4844,756.9375 522.2656,757.25 L522.0938,757.1719 Z " fill="#000000"/><text fill="#000000" font-family="sans-serif" font-size="14" lengthAdjust="spacing" textLength="70" x="540.25" y="766.3467">Response</text><line style="stroke:#181818;stroke-width:0.5;" x1="452.5" x2="665.5" y1="777.5" y2="777.5"/><rect fill="none" height="6" style="stroke:#C82930;stroke-width:1.0;" width="6" x="459.5" y="788.1484"/><text fill="#000000" font-family="sans-serif" font-size="14" lengthAdjust="spacing" textLength="42" x="471.5" y="794.4951">id: int</text><rect fill="none" height="6" style="stroke:#C82930;stroke-width:1.0;" width="6" x="459.5" y="804.4453"/><text fill="#000000" font-family="sans-serif" font-size="14" lengthAdjust="spacing" textLength="189" x="471.5" y="810.792">response_message: String</text><line style="stroke:#181818;stroke-width:0.5;" x1="452.5" x2="665.5" y1="818.0938" y2="818.0938"/></g><!--link Student to Advisor--><g id="link_Student_Advisor"><path codeLine="132" d="M1066,332.207 C1066,358.248 1066,384.591 1066,408.824 " fill="none" id="Student-Advisor" style="stroke:#181818;stroke-width:1.0;"/><text fill="#000000" font-family="sans-serif" font-size="13" lengthAdjust="spacing" textLength="23" x="1067" y="375.0669">has</text></g><!--link Advisor to Admin--><g id="link_Advisor_Admin"><path codeLine="133" d="M1066,620.081 C1066,654.26 1066,673.168 1066,703.385 " fill="none" id="Advisor-to-Admin" style="stroke:#181818;stroke-width:1.0;"/><polygon fill="none" points="1066,721.385,1072,703.385,1060,703.385,1066,721.385" style="stroke:#181818;stroke-width:1.0;"/><text fill="#000000" font-family="sans-serif" font-size="13" lengthAdjust="spacing" textLength="84" x="1067" y="663.0669">isManagedBy</text></g><!--SRC=[dLRBZjem5DtdAxASQfeVo68aMZHIfKwbORgFZ7s1A_mQsu6YTlwz3i71YHsAka7aFiyzzv5GJgmj5qoWB7yNPLaXgqkKhllRMZ2I2AZBDsTGRZkPzkP7PLWiCuh7DezSRL4-JBq_brFVJtMvLjwNoEAZA0fwWN90gqmFXlGFJGGgYAR0WXm4GPvJv9077OS3Z9mOQ6AS0EdEkJFHTafcywlD1YaqN57YKCcObmF2SQ6ryfLqaUs39-2Wa7KwItV0MWwHVb1_16xUNCkyekTc1Tj6jc8D9WSZOkovvNpALbJVLBMWX850sdoVaf9Gcnq6iE0Qf_OWPyGD_D9eJWC-Qe0uO0rnTVaJ1LX7X3wFeY3R4JJRrzzyMmxEtjoEhVwRvaxThWMw5MXbHd9Yzw-j1-ORcdPbEN3PDsPsTcwGdkTWI171JROqjoDNyyQTz2ZJpDX47imZgSkb_qrYOOUwmzUtbDZHWFl-4DVQVzVLtHRDief7gkG6ZPXf42MI0h-v95-LF82nv-sxXwmmL44K1MgD1SyNMcUYSDgehI7YlfsXvo1fltinLMncBISaCdHDAz5T2maPhL-0yPs9THsnjm_4KExpuZMXw_qozAC0qXwZa5T_0zvSEdvQs3smi2zsDcWAuQLVviI3HYqTjGuaWr4pqtDGkJ1TsStweHpwWvsVblokP79ankfssi3ENOpxswazaP0Irb-gEt5FPp0zvqQjEOZaP32mrA2UmjeWXsdCsrMlBeKaW8SAfznstmNXhLTLmyT1NUw8BS9JLVrvkdp2-8ZsXKWVWdqv_GK0]--></g></svg>